<svg id="Сгруппировать_212" data-name="Сгруппировать 212" xmlns="http://www.w3.org/2000/svg" width="106.543" height="127.837" viewBox="0 0 106.543 127.837">
  <rect id="Прямоугольник_341" data-name="Прямоугольник 341" width="106.543" height="127.837" fill="#393c3e"/>
  <g id="Сгруппировать_216" data-name="Сгруппировать 216" transform="translate(19.204 84.991)">
    <path id="Контур_337" data-name="Контур 337" d="M27.458,96.139a2.421,2.421,0,0,1-2.524,1.547,2.491,2.491,0,0,1-2.764-2.545c0-1.506.838-2.635,2.844-2.635a2.294,2.294,0,0,1,2.335,1.277h1.417c-.11-.389-.589-2.494-3.832-2.494-2.884,0-4.212,1.576-4.212,3.692,0,2.645,1.806,3.921,4.1,3.921,3.333,0,3.912-1.956,4.052-2.764Z" transform="translate(-20.633 -91.289)" fill="#fff"/>
    <path id="Контур_338" data-name="Контур 338" d="M31.978,91.482h4.361c1.717,0,2.954.389,2.954,2.166a2.053,2.053,0,0,1-2.026,2.136l2.225,2.953H37.747l-2.106-2.854H33.4v2.854H31.978Zm4.151,3.223c1.158,0,1.747-.169,1.747-1.027s-.588-1.019-1.747-1.019H33.4v2.045Z" transform="translate(-21.41 -91.302)" fill="#fff"/>
    <path id="Контур_339" data-name="Контур 339" d="M42.666,98.737h6.626V97.52H44.082V95.6h4.381V94.385H44.082V92.7h5.089V91.482H42.666Z" transform="translate(-22.147 -91.302)" fill="#fff"/>
    <path id="Контур_340" data-name="Контур 340" d="M54.89,91.482h1.616l3.522,7.254h-1.5l-.759-1.666H53.592l-.768,1.666H51.317Zm2.325,4.371L55.7,92.62l-1.518,3.233Z" transform="translate(-22.744 -91.302)" fill="#fff"/>
    <path id="Контур_341" data-name="Контур 341" d="M63.983,98.737H65.4V92.7h3.244V91.482h-7.9V92.7h3.243Z" transform="translate(-23.394 -91.302)" fill="#fff"/>
    <rect id="Прямоугольник_342" data-name="Прямоугольник 342" width="1.416" height="7.255" transform="translate(47.47 0.179)" fill="#fff"/>
    <path id="Контур_342" data-name="Контур 342" d="M78.946,98.737h1.478l3.552-7.255H82.458L79.685,97.27,76.96,91.482H75.443Z" transform="translate(-24.408 -91.302)" fill="#fff"/>
    <path id="Контур_343" data-name="Контур 343" d="M86.87,98.737H93.5V97.52H88.288V95.6h4.38V94.385h-4.38V92.7h5.089V91.482H86.87Z" transform="translate(-25.196 -91.302)" fill="#fff"/>
    <g id="Сгруппировать_215" data-name="Сгруппировать 215" transform="translate(0 10.13)">
      <g id="Сгруппировать_214" data-name="Сгруппировать 214">
        <path id="Контур_344" data-name="Контур 344" d="M23.071,107.368h.613v-4.52H26.13V102.3h-5.5v.544h2.445Z" transform="translate(-20.627 -102.179)" fill="#fff"/>
        <path id="Контур_345" data-name="Контур 345" d="M28.21,107.368h4.6v-.543H28.823v-1.817h3.259v-.544H28.823v-1.616h3.9V102.3H28.21Z" transform="translate(-21.15 -102.179)" fill="#fff"/>
        <path id="Контур_346" data-name="Контур 346" d="M39.531,105.75a2.225,2.225,0,0,1-2.118,1.192c-1.532,0-2.319-.864-2.319-2.027a2.029,2.029,0,0,1,2.263-2.23,2.094,2.094,0,0,1,2.111,1.177l.53-.242a2.735,2.735,0,0,0-2.647-1.45,2.666,2.666,0,1,0,.007,5.314,2.772,2.772,0,0,0,2.717-1.469Z" transform="translate(-21.581 -102.17)" fill="#fff"/>
        <path id="Контур_347" data-name="Контур 347" d="M42.316,107.368h.613v-2.375h3.985v2.375h.612V102.3h-.612v2.147H42.929V102.3h-.613Z" transform="translate(-22.123 -102.179)" fill="#fff"/>
        <path id="Контур_348" data-name="Контур 348" d="M50.17,107.368h.584v-4.52l4.056,4.52h.612V102.3h-.612v4.166L51.04,102.3h-.87Z" transform="translate(-22.665 -102.179)" fill="#fff"/>
        <path id="Контур_349" data-name="Контур 349" d="M60.645,102.17a2.673,2.673,0,1,1-2.967,2.688A2.672,2.672,0,0,1,60.645,102.17Zm0,4.771a2.138,2.138,0,1,0-2.34-2.194A2.113,2.113,0,0,0,60.645,106.941Z" transform="translate(-23.183 -102.17)" fill="#fff"/>
        <path id="Контур_350" data-name="Контур 350" d="M65.92,107.368h4.612v-.543h-4V102.3H65.92Z" transform="translate(-23.751 -102.179)" fill="#fff"/>
        <path id="Контур_351" data-name="Контур 351" d="M75.145,102.17a2.673,2.673,0,1,1-2.968,2.688A2.672,2.672,0,0,1,75.145,102.17Zm0,4.771a2.138,2.138,0,1,0-2.342-2.194A2.113,2.113,0,0,0,75.145,106.941Z" transform="translate(-24.183 -102.17)" fill="#fff"/>
        <path id="Контур_352" data-name="Контур 352" d="M82.908,104.9v.543h2.056a1.794,1.794,0,0,1-1.993,1.5,2.133,2.133,0,1,1-.056-4.257,2.1,2.1,0,0,1,2.013,1.149l.517-.272a2.6,2.6,0,0,0-2.508-1.392,2.666,2.666,0,1,0,.007,5.314,2.437,2.437,0,0,0,2.033-.821v.737h.545v-2.5Z" transform="translate(-24.726 -102.17)" fill="#fff"/>
        <path id="Контур_353" data-name="Контур 353" d="M89.968,107.368h.613V105.32l2.613-3.017h-.8l-2.118,2.473L88.157,102.3h-.8l2.612,3.017Z" transform="translate(-25.23 -102.179)" fill="#fff"/>
      </g>
    </g>
  </g>
  <g id="Сгруппировать_217" data-name="Сгруппировать 217" transform="translate(19.038 27.402)">
    <path id="Контур_354" data-name="Контур 354" d="M29.807,58.09c0,7.365,8.516,13.785,21.141,17.173q1.709.595,3.549,1.108a84.354,84.354,0,0,1-8.61-1.877c-15.206-4.177-25.437-11.971-25.437-20.9,0-13.121,22.086-23.8,49.594-24.13v-.011l7.663-.02,1.563,1.286,9.31,7.653H70.425C47.9,38.622,29.807,47.352,29.807,58.09Z" transform="translate(-20.449 -29.432)" fill="#ffc52f"/>
    <path id="Контур_355" data-name="Контур 355" d="M79.683,45.816v1.307l-.052,28.108-.005,1.96-7.266-5.656.021-25.662Z" transform="translate(-24.03 -30.562)" fill="#ffc52f"/>
  </g>
</svg>
